<svg width="285" height="125" viewBox="0 0 285 125" fill="none" xmlns="http://www.w3.org/2000/svg">
<mask id="mask0_4_181" style="mask-type:alpha" maskUnits="userSpaceOnUse" x="0" y="0" width="285" height="125">
<rect y="0.0517578" width="284.938" height="124.058" fill="url(#paint0_linear_4_181)"/>
</mask>
<g mask="url(#mask0_4_181)">
<path d="M249.225 16.345L233.12 10.9651L166.793 11.1726L155.312 7.04808L145.597 11.0837L104.085 10.97L87.6362 3.42767H63.7192L60.0198 10.9675H39.1746L0 73.3523L43.6081 122.575H241.423L285.031 73.3523L249.223 16.3425L249.225 16.345ZM240.418 120.344H44.6139L2.78265 73.1249L40.4127 13.1991H61.416L65.1131 5.65923H87.1494L103.593 13.1991L146.04 13.3152L155.369 9.43781L166.406 13.4042L232.759 13.1966L247.757 18.2059L282.249 73.12L240.418 120.339V120.344Z" fill="url(#paint1_linear_4_181)"/>
</g>
<path d="M282.251 73.1247L240.418 120.341H44.6138L2.78259 73.1247L40.4126 13.1989H61.416L65.113 5.65903H87.1493L103.596 13.1989L146.04 13.3175L155.369 9.44007L166.405 13.4065L232.759 13.1989L247.757 18.2106L282.251 73.1247Z" fill="url(#paint2_linear_4_181)"/>
<path d="M282.246 73.1247L247.759 18.2106L232.756 13.2013L166.407 13.4039L155.371 9.43754L146.037 13.315L103.593 13.2013L87.1488 5.66144H65.1149L61.4179 13.2013H40.4171L2.78455 73.1247H27.9495L46.9165 87.2233H77.6344L82.2334 73.1247H102.159L106.739 53.1766H111.283L117.422 50.5027L116.134 64.0403L133.107 73.1247H282.246Z" fill="#4A357D"/>
<path d="M16.1102 65.7579H37.5485L41.2332 58.6901H31.7262L38.453 46.8972L49.4749 42.8838L52.9569 36.2114L42.4663 39.8615L48.0489 30.0728L44.7597 25.103H50.886H58.7495L61.1146 20.5683H44.4903L16.1102 65.7579Z" fill="white"/>
<path d="M69.7097 13.0257L57.2644 38.4205L72.354 47.3764L78.2751 50.4358L69.3143 55.3017L62.9903 71.7826H52.8408L63.6946 46.6918L55.5864 41.8432L40.2571 73.1171L49.3489 79.8563H72.2897L83.6551 45.0015L68.1231 36.4533L76.4834 17.128H83.9566L89.0424 19.2657L81.8486 22.6241L76.9382 35.4278L85.3084 39.9255L92.9594 16.4608L85.5308 13.0257H69.7097Z" fill="white"/>
<path d="M97.6869 20.5678L84.7078 65.7574H96.2906L100.872 45.8093H109.749L120.776 41.0077L122.82 24.4155L114.309 20.5678H97.6844H97.6869ZM112.571 30.2033L110.792 40.0513H102.197L105.63 25.1001H113.493L119.296 27.4602L112.571 30.2008V30.2033Z" fill="white"/>
<path d="M127.668 20.5678L123.932 59.8585L134.954 65.7574H156.392L153.543 24.4155L144.295 20.5678H127.671H127.668ZM144.451 34.4711L144.728 58.6871H135.221L136.483 25.1001H144.347L150.389 27.4602L144.453 34.4711H144.451Z" fill="white"/>
<path d="M159.881 24.4328L164.367 65.7574H175.95L172.636 45.8093H181.513L185.803 65.7574H197.388L192.191 46.6916L185.373 43.8051L190.641 41.0077L185.069 20.5678H168.444L159.881 24.4328ZM180.277 40.0513H171.682L170.056 30.2552L163.349 27.4626L169.198 25.1026H177.062L180.277 40.0537V40.0513Z" fill="white"/>
<path d="M189.366 25.1026H197.109L210.925 65.7574H222.511L208.306 30.013L200.193 25.0482H213.953L211.961 20.5678H188.044L189.366 25.1026Z" fill="white"/>
<path d="M252.7 39.9252L242.926 24.3637L231.558 20.5678H214.934L223.217 38.4202L246.85 47.3761L253.305 58.6896H243.796L237.541 46.6916L224.804 41.8429L233.162 59.8585L247.483 65.7574H268.921L255.885 45.0012L232.2 36.4531L228.882 30.0871L220.16 25.1026H234.145L240.034 35.4275L252.7 39.9252Z" fill="white"/>
<path d="M155.759 15.1531C154.545 16.3369 153.171 17.4341 151.661 18.43C153.312 19.4358 154.881 20.5825 156.347 21.8503C157.59 20.5825 158.959 19.4358 160.432 18.43C158.746 17.4341 157.179 16.3369 155.759 15.1531Z" fill="#E2D45C"/>
<path d="M29.1737 60.1725L36.1303 47.9743C33.5503 48.2684 30.9925 48.5699 28.457 48.8838L18.7919 64.2748H36.6493L38.7869 60.1725H29.1737Z" fill="url(#paint3_linear_4_181)"/>
<path d="M79.0514 44.1609C76.2885 44.3413 73.5429 44.534 70.8146 44.7391L73.0734 46.0786L80.4946 49.9115L81.8637 45.7079L79.0514 44.1609ZM70.5008 56.3418L64.0112 73.265H50.5848L61.8192 47.2969L59.1156 45.6807C57.8009 45.7944 56.4887 45.9105 55.1838 46.0316L42.1331 72.6596L49.8385 78.3731H71.2125L80.0943 51.1348L70.5008 56.3418Z" fill="url(#paint4_linear_4_181)"/>
<path d="M113.711 42.468L109.444 44.3264H99.6944L95.1127 64.2745H86.6782L92.6859 43.3552C99.6005 42.992 106.611 42.6954 113.711 42.468Z" fill="url(#paint5_linear_4_181)"/>
<path d="M154.803 64.2748H135.327L125.501 59.0184L127.11 42.1174C129.519 42.0679 131.936 42.0284 134.363 41.9963L133.681 60.1725H146.228L146.02 41.8999C147.13 41.8974 148.242 41.895 149.356 41.895C150.661 41.895 151.963 41.8974 153.261 41.9024L154.803 64.2748Z" fill="url(#paint6_linear_4_181)"/>
<path d="M195.448 64.2746H187.001L182.711 44.3265H170.886L174.2 64.2746H165.696L163.277 41.9813C170.513 42.0703 177.672 42.2309 184.745 42.4583L181.925 43.9558L190.95 47.7764L195.448 64.2746Z" fill="url(#paint7_linear_4_181)"/>
<path d="M212.147 43.6938C209.73 43.5529 207.301 43.4195 204.859 43.2959L211.989 64.2745H220.327L212.147 43.6938Z" fill="url(#paint8_linear_4_181)"/>
<path d="M255.52 47.2058C253.042 46.9463 250.546 46.6943 248.03 46.4521L255.859 60.1726H242.897L236.487 47.878L228.324 44.7692C228.141 44.7543 227.961 44.742 227.778 44.7296L234.265 58.7096L247.775 64.2749H266.241L255.52 47.2058Z" fill="url(#paint9_linear_4_181)"/>
<defs>
<linearGradient id="paint0_linear_4_181" x1="142.469" y1="57.7559" x2="142.469" y2="118.549" gradientUnits="userSpaceOnUse">
<stop stop-color="#D9D9D9"/>
<stop offset="1" stop-color="#D9D9D9" stop-opacity="0"/>
</linearGradient>
<linearGradient id="paint1_linear_4_181" x1="0" y1="63.0001" x2="285.034" y2="63.0001" gradientUnits="userSpaceOnUse">
<stop stop-color="#996DFF"/>
<stop offset="0.5" stop-color="#35E8B3"/>
<stop offset="1" stop-color="#E2D45C"/>
</linearGradient>
<linearGradient id="paint2_linear_4_181" x1="142.516" y1="74.9115" x2="142.516" y2="119.167" gradientUnits="userSpaceOnUse">
<stop stop-color="#28203E"/>
<stop offset="1" stop-color="#121214" stop-opacity="0"/>
</linearGradient>
<linearGradient id="paint3_linear_4_181" x1="28.7906" y1="44.0154" x2="28.7906" y2="61.4551" gradientUnits="userSpaceOnUse">
<stop stop-color="#A9A9AD"/>
<stop offset="1" stop-color="#A9A9AD" stop-opacity="0"/>
</linearGradient>
<linearGradient id="paint4_linear_4_181" x1="61.9996" y1="44.0151" x2="61.9996" y2="61.4548" gradientUnits="userSpaceOnUse">
<stop stop-color="#A9A9AD"/>
<stop offset="1" stop-color="#A9A9AD" stop-opacity="0"/>
</linearGradient>
<linearGradient id="paint5_linear_4_181" x1="100.196" y1="44.0151" x2="100.196" y2="61.4548" gradientUnits="userSpaceOnUse">
<stop stop-color="#A9A9AD"/>
<stop offset="1" stop-color="#A9A9AD" stop-opacity="0"/>
</linearGradient>
<linearGradient id="paint6_linear_4_181" x1="140.153" y1="44.0153" x2="140.153" y2="61.4551" gradientUnits="userSpaceOnUse">
<stop stop-color="#A9A9AD"/>
<stop offset="1" stop-color="#A9A9AD" stop-opacity="0"/>
</linearGradient>
<linearGradient id="paint7_linear_4_181" x1="179.363" y1="44.0151" x2="179.363" y2="61.4549" gradientUnits="userSpaceOnUse">
<stop stop-color="#A9A9AD"/>
<stop offset="1" stop-color="#A9A9AD" stop-opacity="0"/>
</linearGradient>
<linearGradient id="paint8_linear_4_181" x1="212.594" y1="44.015" x2="212.594" y2="61.4548" gradientUnits="userSpaceOnUse">
<stop stop-color="#A9A9AD"/>
<stop offset="1" stop-color="#A9A9AD" stop-opacity="0"/>
</linearGradient>
<linearGradient id="paint9_linear_4_181" x1="247.009" y1="44.0154" x2="247.009" y2="61.4552" gradientUnits="userSpaceOnUse">
<stop stop-color="#A9A9AD"/>
<stop offset="1" stop-color="#A9A9AD" stop-opacity="0"/>
</linearGradient>
</defs>
</svg>
